<svg width="226" height="173" viewBox="0 0 226 173" fill="none" xmlns="http://www.w3.org/2000/svg">
<circle cx="86.5" cy="86.5" r="86.5" fill="white"/>
<circle cx="139.5" cy="86.5" r="86.5" fill="white"/>
<path d="M73.3262 66.888H80.6402L90.5762 76.617V66.888H97.0622V84H90.5302L79.8122 73.627V84H73.3262V66.888ZM105.778 66.888V84H99.2686V66.888H105.778ZM120.403 84.322H119.506C117.498 84.322 115.734 84.1227 114.216 83.724C112.714 83.3253 111.541 82.8347 110.697 82.252C109.854 81.654 109.172 80.9487 108.65 80.136C108.129 79.3233 107.792 78.572 107.638 77.882C107.485 77.192 107.408 76.4713 107.408 75.72V75.053C107.408 74.2863 107.477 73.5657 107.615 72.891C107.769 72.2163 108.098 71.4803 108.604 70.683C109.11 69.8703 109.777 69.1803 110.605 68.613C111.449 68.0303 112.629 67.5473 114.147 67.164C115.681 66.7653 117.467 66.566 119.506 66.566H120.403C121.829 66.566 123.133 66.658 124.313 66.842C125.509 67.026 126.506 67.2637 127.303 67.555C128.116 67.8463 128.829 68.199 129.442 68.613C130.071 69.0117 130.562 69.418 130.914 69.832C131.267 70.246 131.551 70.6907 131.765 71.166C131.995 71.626 132.141 72.04 132.202 72.408C132.279 72.776 132.317 73.1363 132.317 73.489V73.788H125.532C125.011 72.04 123.133 71.166 119.897 71.166C116.079 71.166 114.17 72.5 114.17 75.168V75.444C114.17 75.95 114.255 76.433 114.423 76.893C114.607 77.353 114.899 77.8053 115.297 78.25C115.711 78.6947 116.309 79.0473 117.091 79.308C117.889 79.5687 118.832 79.699 119.92 79.699C120.871 79.699 121.707 79.6147 122.427 79.446C123.148 79.262 123.692 79.0627 124.06 78.848C124.428 78.6333 124.735 78.365 124.98 78.043C125.226 77.721 125.371 77.491 125.417 77.353C125.463 77.215 125.509 77.0617 125.555 76.893H132.317V77.261C132.317 77.7823 132.241 78.319 132.087 78.871C131.934 79.4077 131.597 80.021 131.075 80.711C130.554 81.3857 129.879 81.9837 129.051 82.505C128.239 83.011 127.081 83.4403 125.578 83.793C124.091 84.1457 122.366 84.322 120.403 84.322ZM133.881 66.888H152.81V71.074H140.321V73.213H152.557V77.376H140.321V79.722H152.994V84H133.881V66.888ZM41.2031 104H33.2451L26.5751 86.888H33.8431L37.7301 98.181L41.1571 86.888H48.5171L51.9901 97.997L55.7621 86.888H62.4551L55.7851 104H48.2181L44.6531 93.19L41.2031 104ZM63.2637 86.888H82.1927V91.074H69.7037V93.213H81.9397V97.376H69.7037V99.722H82.3767V104H63.2637V86.888ZM98.4546 96.962L95.5796 91.074L92.7736 96.962H98.4546ZM101.882 104L100.548 101.24H90.7726L89.4616 104H82.8376L91.3016 86.888H100.088L109.035 104H101.882ZM113.085 104V91.557H105.702V86.888H127V91.557H119.617V104H113.085ZM128.692 104V86.888H135.224V92.937H145.919V86.888H152.428V104H145.919V97.491H135.224V104H128.692ZM154.635 86.888H173.564V91.074H161.075V93.213H173.311V97.376H161.075V99.722H173.748V104H154.635V86.888ZM182.168 91.051V93.995H189.666C190.984 93.995 191.644 93.5043 191.644 92.523V92.5C191.644 91.534 190.984 91.051 189.666 91.051H182.168ZM182.168 98.135V104H175.636V86.888H191.184C195.983 86.888 198.383 88.3523 198.383 91.281V91.534C198.383 92.1167 198.268 92.6457 198.038 93.121C197.808 93.5963 197.501 93.9797 197.118 94.271C196.75 94.5623 196.382 94.7923 196.014 94.961C195.661 95.1297 195.301 95.26 194.933 95.352C196.021 95.5973 196.88 96.0727 197.509 96.778C198.137 97.468 198.452 98.3497 198.452 99.423V101.953C198.452 102.842 198.559 103.486 198.774 103.885V104H192.104C191.966 103.847 191.897 103.548 191.897 103.103V101.102C191.897 100.09 191.628 99.3463 191.092 98.871C190.57 98.3803 189.681 98.135 188.424 98.135H182.168Z" fill="#011689"/>
</svg>
