<svg width="20" height="21" viewBox="0 0 20 21" fill="none" xmlns="http://www.w3.org/2000/svg">
<path fill-rule="evenodd" clip-rule="evenodd" d="M10 5.3833C7.16406 5.3833 4.86328 7.68408 4.86328 10.52C4.86328 13.3559 7.16406 15.6567 10 15.6567C12.8359 15.6567 15.1367 13.3559 15.1367 10.52C15.1367 7.68408 12.8359 5.3833 10 5.3833ZM10 13.852C8.1602 13.852 6.66797 12.3598 6.66797 10.52C6.66797 8.68022 8.1602 7.18799 10 7.18799C11.8398 7.18799 13.332 8.68022 13.332 10.52C13.332 12.3598 11.8398 13.852 10 13.852Z" fill="white"/>
<path d="M15.3398 6.37914C16 6.37914 16.5391 5.84399 16.5391 5.17993C16.5391 4.51977 16 3.98071 15.3398 3.98071C14.6797 3.98071 14.1406 4.51587 14.1406 5.17993C14.1406 5.84008 14.6758 6.37914 15.3398 6.37914Z" fill="white"/>
<path fill-rule="evenodd" clip-rule="evenodd" d="M10 0.52002C7.28516 0.52002 6.94531 0.531739 5.87891 0.578609C4.81641 0.625489 4.08594 0.797359 3.45313 1.04346C2.79297 1.30127 2.23438 1.64111 1.67969 2.19971C1.12109 2.7544 0.78125 3.31299 0.52344 3.96924C0.27734 4.60596 0.10547 5.33252 0.0585899 6.39502C0.0117199 7.46533 0 7.80518 0 10.52C0 13.2348 0.0117199 13.5747 0.0585899 14.6411C0.10547 15.7036 0.27734 16.4341 0.52344 17.0669C0.78125 17.727 1.12109 18.2856 1.67969 18.8403C2.23438 19.395 2.79297 19.7388 3.44922 19.9927C4.08594 20.2388 4.8125 20.4106 5.875 20.4575C6.94141 20.5044 7.28125 20.5161 9.9961 20.5161C12.7109 20.5161 13.0508 20.5044 14.1172 20.4575C15.1797 20.4106 15.9102 20.2388 16.543 19.9927C17.1992 19.7388 17.7578 19.395 18.3125 18.8403C18.8672 18.2856 19.2109 17.727 19.4648 17.0708C19.7109 16.4341 19.8828 15.7075 19.9297 14.645C19.9766 13.5786 19.9883 13.2388 19.9883 10.5239C19.9883 7.80908 19.9766 7.46924 19.9297 6.40283C19.8828 5.34033 19.7109 4.60986 19.4648 3.97705C19.2188 3.31299 18.8789 2.7544 18.3203 2.19971C17.7656 1.64502 17.207 1.30127 16.5508 1.04736C15.9141 0.801269 15.1875 0.6294 14.125 0.58252C13.0547 0.53174 12.7148 0.52002 10 0.52002ZM10 2.3208C12.6719 2.3208 12.9883 2.33252 14.0391 2.3794C15.0156 2.42236 15.543 2.58643 15.8945 2.72315C16.3594 2.90283 16.6953 3.12158 17.043 3.46924C17.3945 3.8208 17.6094 4.15283 17.7891 4.61768C17.9258 4.96924 18.0898 5.50049 18.1328 6.47314C18.1797 7.52783 18.1914 7.84424 18.1914 10.5122C18.1914 13.1841 18.1797 13.5005 18.1328 14.5513C18.0898 15.5278 17.9258 16.0552 17.7891 16.4067C17.6094 16.8716 17.3906 17.2075 17.043 17.5552C16.6914 17.9067 16.3594 18.1216 15.8945 18.3013C15.543 18.438 15.0117 18.602 14.0391 18.645C12.9844 18.6919 12.668 18.7036 10 18.7036C7.32813 18.7036 7.01172 18.6919 5.96094 18.645C4.98438 18.602 4.45703 18.438 4.10547 18.3013C3.64063 18.1216 3.30469 17.9028 2.95703 17.5552C2.60547 17.2036 2.39062 16.8716 2.21094 16.4067C2.07422 16.0552 1.91016 15.5239 1.86719 14.5513C1.82031 13.4966 1.80859 13.1802 1.80859 10.5122C1.80859 7.84033 1.82031 7.52393 1.86719 6.47314C1.91016 5.49658 2.07422 4.96924 2.21094 4.61768C2.39062 4.15283 2.60938 3.8169 2.95703 3.46924C3.30859 3.11768 3.64063 2.90283 4.10547 2.72315C4.45703 2.58643 4.98828 2.42236 5.96094 2.3794C7.01172 2.33252 7.32813 2.3208 10 2.3208Z" fill="white"/>
</svg>
