<svg width="360" height="82" viewBox="0 0 360 82" fill="none" xmlns="http://www.w3.org/2000/svg">
<path d="M98.2024 1.288H113.466L134.202 21.592V1.288H147.738V37H134.106L111.738 15.352V37H98.2024V1.288ZM165.927 1.288V37H152.343V1.288H165.927ZM196.451 37.672H194.579C190.387 37.672 186.707 37.256 183.539 36.424C180.403 35.592 177.955 34.568 176.195 33.352C174.435 32.104 173.011 30.632 171.923 28.936C170.835 27.24 170.131 25.672 169.811 24.232C169.491 22.792 169.331 21.288 169.331 19.72V18.328C169.331 16.728 169.475 15.224 169.763 13.816C170.083 12.408 170.771 10.872 171.827 9.208C172.883 7.512 174.275 6.072 176.003 4.888C177.763 3.672 180.227 2.664 183.395 1.864C186.595 1.032 190.323 0.615999 194.579 0.615999H196.451C199.427 0.615999 202.147 0.807999 204.611 1.192C207.107 1.576 209.187 2.072 210.851 2.68C212.547 3.288 214.035 4.024 215.315 4.888C216.627 5.72 217.651 6.568 218.387 7.432C219.123 8.296 219.715 9.224 220.163 10.216C220.643 11.176 220.947 12.04 221.075 12.808C221.235 13.576 221.315 14.328 221.315 15.064V15.688H207.155C206.067 12.04 202.147 10.216 195.395 10.216C187.427 10.216 183.443 13 183.443 18.568V19.144C183.443 20.2 183.619 21.208 183.971 22.168C184.355 23.128 184.963 24.072 185.795 25C186.659 25.928 187.907 26.664 189.539 27.208C191.203 27.752 193.171 28.024 195.443 28.024C197.427 28.024 199.171 27.848 200.675 27.496C202.179 27.112 203.315 26.696 204.083 26.248C204.851 25.8 205.491 25.24 206.003 24.568C206.515 23.896 206.819 23.416 206.915 23.128C207.011 22.84 207.107 22.52 207.203 22.168H221.315V22.936C221.315 24.024 221.155 25.144 220.835 26.296C220.515 27.416 219.811 28.696 218.723 30.136C217.635 31.544 216.227 32.792 214.499 33.88C212.803 34.936 210.387 35.832 207.251 36.568C204.147 37.304 200.547 37.672 196.451 37.672ZM224.577 1.288H264.081V10.024H238.017V14.488H263.553V23.176H238.017V28.072H264.465V37H224.577V1.288ZM31.1629 82H14.5549L0.634937 46.288H15.8029L23.9149 69.856L31.0669 46.288H46.4269L53.6749 69.472L61.5469 46.288H75.5149L61.5949 82H45.8029L38.3629 59.44L31.1629 82ZM77.2024 46.288H116.706V55.024H90.6424V59.488H116.178V68.176H90.6424V73.072H117.09V82H77.2024V46.288ZM150.644 67.312L144.644 55.024L138.788 67.312H150.644ZM157.796 82L155.012 76.24H134.612L131.876 82H118.052L135.716 46.288H154.052L172.724 82H157.796ZM181.178 82V56.032H165.77V46.288H210.218V56.032H194.81V82H181.178ZM213.749 82V46.288H227.381V58.912H249.701V46.288H263.285V82H249.701V68.416H227.381V82H213.749ZM267.89 46.288H307.394V55.024H281.33V59.488H306.866V68.176H281.33V73.072H307.778V82H267.89V46.288ZM325.35 54.976V61.12H340.998C343.75 61.12 345.126 60.096 345.126 58.048V58C345.126 55.984 343.75 54.976 340.998 54.976H325.35ZM325.35 69.76V82H311.718V46.288H344.166C354.182 46.288 359.19 49.344 359.19 55.456V55.984C359.19 57.2 358.95 58.304 358.47 59.296C357.99 60.288 357.35 61.088 356.55 61.696C355.782 62.304 355.014 62.784 354.246 63.136C353.51 63.488 352.758 63.76 351.99 63.952C354.262 64.464 356.054 65.456 357.366 66.928C358.678 68.368 359.334 70.208 359.334 72.448V77.728C359.334 79.584 359.558 80.928 360.006 81.76V82H346.086C345.798 81.68 345.654 81.056 345.654 80.128V75.952C345.654 73.84 345.094 72.288 343.974 71.296C342.886 70.272 341.03 69.76 338.406 69.76H325.35Z" fill="white"/>
</svg>
